<svg width="547" height="367" viewBox="0 0 547 367" fill="none" xmlns="http://www.w3.org/2000/svg">
<g filter="url(#filter0_d)">
<path d="M502.06 4.42118H312.558V0H226.63V4.42118H36.3474C34.664 4.42118 32.9972 4.79649 31.442 5.52567C29.8868 6.25486 28.4737 7.32365 27.2834 8.67101C26.0931 10.0184 25.1489 11.6179 24.5047 13.3783C23.8605 15.1387 23.529 17.0255 23.529 18.931V312.658C23.529 316.506 24.8795 320.197 27.2834 322.918C29.6873 325.639 32.9477 327.168 36.3474 327.168H502.06C505.459 327.168 508.72 325.639 511.124 322.918C513.528 320.197 514.878 316.506 514.878 312.658V18.931C514.878 17.0255 514.547 15.1387 513.902 13.3783C513.258 11.6179 512.314 10.0184 511.124 8.67101C509.933 7.32365 508.52 6.25486 506.965 5.52567C505.41 4.79649 503.743 4.42118 502.06 4.42118Z" fill="#3F3D56"/>
<path d="M497.692 30.064H40.7145V321.862H497.692V30.064Z" fill="#5D36AC"/>
<path d="M268.813 22.1059C271.402 22.1059 273.5 19.7306 273.5 16.8005C273.5 13.8704 271.402 11.4951 268.813 11.4951C266.225 11.4951 264.126 13.8704 264.126 16.8005C264.126 19.7306 266.225 22.1059 268.813 22.1059Z" fill="#6C63FF"/>
<path opacity="0.1" d="M367.005 321.862H40.7147V30.0644L367.005 321.862Z" fill="#F0B41B"/>
<path d="M117.926 250.85C142.186 250.85 161.852 231.184 161.852 206.925C161.852 182.666 142.186 163 117.926 163C93.6664 163 74 182.666 74 206.925C74 231.184 93.6664 250.85 117.926 250.85Z" fill="#F2F2F2"/>
<path d="M418.126 187.433H375.439V197.53H418.126V187.433Z" fill="white"/>
<path d="M469.731 108.824H323.832V113.151H469.731V108.824Z" fill="#F0B41B"/>
<path d="M469.731 122.526H323.832V126.853H469.731V122.526Z" fill="#F0B41B"/>
<path d="M469.731 136.229H323.832V140.556H469.731V136.229Z" fill="#F0B41B"/>
<path d="M469.731 149.931H323.832V154.259H469.731V149.931Z" fill="#F0B41B"/>
<path d="M469.731 163.634H323.832V167.961H469.731V163.634Z" fill="#F0B41B"/>
<path d="M469.733 35.9841H451.894V56.1773H469.733V35.9841Z" fill="#F2F2F2"/>
<path d="M478.015 65.5526H456.353V41.0323H478.015V65.5526ZM457.295 64.4866H477.073V42.0984H457.295V64.4866Z" fill="#F0B41B"/>
<path d="M527.709 316.557H483.111V312.919C483.111 312.825 483.095 312.731 483.063 312.643C483.031 312.556 482.984 312.476 482.924 312.409C482.865 312.342 482.795 312.289 482.718 312.253C482.64 312.217 482.558 312.198 482.474 312.198H467.183C467.1 312.198 467.017 312.217 466.939 312.253C466.862 312.289 466.792 312.342 466.733 312.409C466.674 312.476 466.627 312.556 466.595 312.643C466.563 312.731 466.546 312.825 466.546 312.919V316.557H456.989V312.919C456.989 312.825 456.973 312.731 456.941 312.643C456.909 312.556 456.862 312.476 456.803 312.409C456.744 312.342 456.673 312.289 456.596 312.253C456.519 312.217 456.436 312.198 456.352 312.198H441.061C440.978 312.198 440.895 312.217 440.818 312.253C440.74 312.289 440.67 312.342 440.611 312.409C440.552 312.476 440.505 312.556 440.473 312.643C440.441 312.731 440.424 312.825 440.424 312.919V316.557H430.868V312.919C430.868 312.825 430.851 312.731 430.819 312.643C430.787 312.556 430.74 312.476 430.681 312.409C430.622 312.342 430.552 312.289 430.474 312.253C430.397 312.217 430.314 312.198 430.23 312.198H414.94C414.856 312.198 414.773 312.217 414.696 312.253C414.619 312.289 414.548 312.342 414.489 312.409C414.43 312.476 414.383 312.556 414.351 312.643C414.319 312.731 414.303 312.825 414.303 312.919V316.557H404.746V312.919C404.746 312.825 404.729 312.731 404.697 312.643C404.665 312.556 404.618 312.476 404.559 312.409C404.5 312.342 404.43 312.289 404.353 312.253C404.275 312.217 404.192 312.198 404.109 312.198H388.818C388.734 312.198 388.651 312.217 388.574 312.253C388.497 312.289 388.427 312.342 388.367 312.409C388.308 312.476 388.261 312.556 388.229 312.643C388.197 312.731 388.181 312.825 388.181 312.919V316.557H378.624V312.919C378.624 312.825 378.608 312.731 378.576 312.643C378.544 312.556 378.497 312.476 378.438 312.409C378.378 312.342 378.308 312.289 378.231 312.253C378.154 312.217 378.071 312.198 377.987 312.198H362.696C362.613 312.198 362.53 312.217 362.452 312.253C362.375 312.289 362.305 312.342 362.246 312.409C362.187 312.476 362.14 312.556 362.108 312.643C362.076 312.731 362.059 312.825 362.059 312.919V316.557H352.502V312.919C352.502 312.825 352.486 312.731 352.454 312.643C352.422 312.556 352.375 312.476 352.316 312.409C352.257 312.342 352.186 312.289 352.109 312.253C352.032 312.217 351.949 312.198 351.865 312.198H336.574C336.491 312.198 336.408 312.217 336.331 312.253C336.253 312.289 336.183 312.342 336.124 312.409C336.065 312.476 336.018 312.556 335.986 312.643C335.954 312.731 335.937 312.825 335.937 312.919V316.557H326.381V312.919C326.381 312.825 326.364 312.731 326.332 312.643C326.3 312.556 326.253 312.476 326.194 312.409C326.135 312.342 326.065 312.289 325.987 312.253C325.91 312.217 325.827 312.198 325.743 312.198H205.966C205.882 312.198 205.799 312.217 205.722 312.253C205.645 312.289 205.574 312.342 205.515 312.409C205.456 312.476 205.409 312.556 205.377 312.643C205.345 312.731 205.329 312.825 205.329 312.919V316.557H195.772V312.919C195.772 312.825 195.755 312.731 195.723 312.643C195.691 312.556 195.644 312.476 195.585 312.409C195.526 312.342 195.456 312.289 195.379 312.253C195.301 312.217 195.218 312.198 195.135 312.198H179.844C179.76 312.198 179.677 312.217 179.6 312.253C179.523 312.289 179.453 312.342 179.393 312.409C179.334 312.476 179.287 312.556 179.255 312.643C179.223 312.731 179.207 312.825 179.207 312.919V316.557H169.65V312.919C169.65 312.825 169.634 312.731 169.602 312.643C169.57 312.556 169.523 312.476 169.464 312.409C169.404 312.342 169.334 312.289 169.257 312.253C169.18 312.217 169.097 312.198 169.013 312.198H153.722C153.639 312.198 153.556 312.217 153.478 312.253C153.401 312.289 153.331 312.342 153.272 312.409C153.213 312.476 153.166 312.556 153.134 312.643C153.102 312.731 153.085 312.825 153.085 312.919V316.557H143.528V312.919C143.528 312.825 143.512 312.731 143.48 312.643C143.448 312.556 143.401 312.476 143.342 312.409C143.283 312.342 143.212 312.289 143.135 312.253C143.058 312.217 142.975 312.198 142.891 312.198H127.6C127.517 312.198 127.434 312.217 127.357 312.253C127.279 312.289 127.209 312.342 127.15 312.409C127.091 312.476 127.044 312.556 127.012 312.643C126.98 312.731 126.963 312.825 126.963 312.919V316.557H117.407V312.919C117.407 312.825 117.39 312.731 117.358 312.643C117.326 312.556 117.279 312.476 117.22 312.409C117.161 312.342 117.091 312.289 117.013 312.253C116.936 312.217 116.853 312.198 116.77 312.198H101.479C101.395 312.198 101.312 312.217 101.235 312.253C101.158 312.289 101.087 312.342 101.028 312.409C100.969 312.476 100.922 312.556 100.89 312.643C100.858 312.731 100.842 312.825 100.842 312.919V316.557H91.2849V312.919C91.2849 312.825 91.2684 312.731 91.2364 312.643C91.2044 312.556 91.1574 312.476 91.0983 312.409C91.0391 312.342 90.9689 312.289 90.8916 312.253C90.8143 312.217 90.7314 312.198 90.6478 312.198H75.357C75.2733 312.198 75.1905 312.217 75.1132 312.253C75.0359 312.289 74.9656 312.342 74.9065 312.409C74.8473 312.476 74.8004 312.556 74.7683 312.643C74.7363 312.731 74.7199 312.825 74.7199 312.919V316.557H65.1631V312.919C65.1631 312.825 65.1466 312.731 65.1146 312.643C65.0826 312.556 65.0357 312.476 64.9765 312.409C64.9174 312.342 64.8471 312.289 64.7698 312.253C64.6925 312.217 64.6097 312.198 64.526 312.198H49.2352C49.1516 312.198 49.0687 312.217 48.9914 312.253C48.9141 312.289 48.8439 312.342 48.7847 312.409C48.7255 312.476 48.6786 312.556 48.6466 312.643C48.6146 312.731 48.5981 312.825 48.5981 312.919V316.557H19.2908C15.2354 316.557 11.3461 318.38 8.47857 321.626C5.61099 324.872 4 329.275 4 333.865V341.692C4.00001 346.282 5.61101 350.685 8.47858 353.93C11.3462 357.176 15.2354 359 19.2908 359H527.709C531.765 359 535.654 357.176 538.521 353.93C541.389 350.685 543 346.282 543 341.692V333.865C543 329.275 541.389 324.872 538.521 321.626C535.654 318.38 531.765 316.557 527.709 316.557Z" fill="#3F3D56"/>
<path d="M117 257C107.111 257 97.444 254.068 89.2215 248.573C80.9991 243.079 74.5904 235.27 70.806 226.134C67.0217 216.998 66.0315 206.945 67.9608 197.246C69.89 187.546 74.6521 178.637 81.6447 171.645C88.6373 164.652 97.5464 159.89 107.245 157.961C116.945 156.031 126.998 157.022 136.134 160.806C145.27 164.59 153.079 170.999 158.573 179.222C164.068 187.444 167 197.111 167 207C166.985 220.256 161.712 232.965 152.339 242.339C142.965 251.712 130.256 256.985 117 257ZM117 158.316C107.371 158.316 97.9586 161.171 89.9525 166.521C81.9464 171.87 75.7065 179.473 72.0217 188.369C68.3369 197.265 67.3728 207.054 69.2513 216.498C71.1298 225.942 75.7665 234.616 82.5751 241.425C89.3837 248.234 98.0584 252.87 107.502 254.749C116.946 256.627 126.735 255.663 135.631 251.978C144.527 248.294 152.13 242.054 157.479 234.048C162.829 226.041 165.684 216.629 165.684 207C165.67 194.093 160.536 181.718 151.409 172.591C142.282 163.464 129.907 158.33 117 158.316Z" fill="#F0B41B"/>
</g>
<defs>
<filter id="filter0_d" x="0" y="0" width="547" height="367" filterUnits="userSpaceOnUse" color-interpolation-filters="sRGB">
<feFlood flood-opacity="0" result="BackgroundImageFix"/>
<feColorMatrix in="SourceAlpha" type="matrix" values="0 0 0 0 0 0 0 0 0 0 0 0 0 0 0 0 0 0 127 0"/>
<feOffset dy="4"/>
<feGaussianBlur stdDeviation="2"/>
<feColorMatrix type="matrix" values="0 0 0 0 0 0 0 0 0 0 0 0 0 0 0 0 0 0 0.25 0"/>
<feBlend mode="normal" in2="BackgroundImageFix" result="effect1_dropShadow"/>
<feBlend mode="normal" in="SourceGraphic" in2="effect1_dropShadow" result="shape"/>
</filter>
</defs>
</svg>
