<svg width="81" height="55" viewBox="0 0 81 55" fill="none" xmlns="http://www.w3.org/2000/svg">
<path d="M59.0116 30.5078C54.9377 45.5671 40.984 54.8937 40.984 54.8937C40.984 54.8937 33.6352 39.8043 37.709 24.7451C41.7828 9.68577 55.7366 0.359192 55.7366 0.359192C55.7366 0.359192 63.0854 15.4486 59.0116 30.5078Z" fill="#CCCCCC"/>
<path d="M21.9512 30.5078C26.025 45.5671 39.9787 54.8937 39.9787 54.8937C39.9787 54.8937 47.3275 39.8043 43.2537 24.7451C39.1799 9.68577 25.2262 0.359192 25.2262 0.359192C25.2262 0.359192 17.8774 15.4486 21.9512 30.5078Z" fill="#CCCCCC"/>
<path d="M27.9373 27.2714C39.116 38.1534 40.4814 54.8814 40.4814 54.8814C40.4814 54.8814 23.7226 53.9664 12.544 43.0844C1.36538 32.2024 0 15.4744 0 15.4744C0 15.4744 16.7587 16.3895 27.9373 27.2714Z" fill="#3F3D56"/>
<path d="M53.0254 27.2714C41.8467 38.1534 40.4814 54.8814 40.4814 54.8814C40.4814 54.8814 57.2401 53.9664 68.4187 43.0844C79.5973 32.2024 80.9627 15.4744 80.9627 15.4744C80.9627 15.4744 64.204 16.3895 53.0254 27.2714Z" fill="#3F3D56"/>
</svg>
