<svg width="105" height="27" viewBox="0 0 105 27" fill="none" xmlns="http://www.w3.org/2000/svg">
<path d="M0.966797 17V4.20312H5.56348C7.20996 4.20312 8.46094 4.50488 9.31641 5.1084C10.1777 5.71191 10.6084 6.58789 10.6084 7.73633C10.6084 8.39844 10.4561 8.96387 10.1514 9.43262C9.84668 9.90137 9.39844 10.2471 8.80664 10.4697C9.47461 10.6455 9.9873 10.9736 10.3447 11.4541C10.7021 11.9346 10.8809 12.5205 10.8809 13.2119C10.8809 14.4658 10.4824 15.4092 9.68555 16.042C8.89453 16.6689 7.71973 16.9883 6.16113 17H0.966797ZM4.05176 11.5596V14.627H6.07324C6.62988 14.627 7.05762 14.501 7.35645 14.249C7.65527 13.9912 7.80469 13.6309 7.80469 13.168C7.80469 12.1016 7.27441 11.5654 6.21387 11.5596H4.05176ZM4.05176 9.53809H5.66016C6.33398 9.53223 6.81445 9.40918 7.10156 9.16895C7.38867 8.92871 7.53223 8.57422 7.53223 8.10547C7.53223 7.56641 7.37695 7.17969 7.06641 6.94531C6.75586 6.70508 6.25488 6.58496 5.56348 6.58496H4.05176V9.53809ZM23.4229 10.8652C23.4229 12.1133 23.1914 13.2178 22.7285 14.1787C22.2656 15.1396 21.6064 15.8809 20.751 16.4023C19.9014 16.918 18.9316 17.1758 17.8418 17.1758C16.752 17.1758 15.7852 16.9268 14.9414 16.4287C14.0977 15.9248 13.4385 15.207 12.9639 14.2754C12.4951 13.3438 12.249 12.2744 12.2256 11.0674V10.3467C12.2256 9.09277 12.4541 7.98828 12.9111 7.0332C13.374 6.07227 14.0332 5.33105 14.8887 4.80957C15.75 4.28809 16.7285 4.02734 17.8242 4.02734C18.9082 4.02734 19.875 4.28516 20.7246 4.80078C21.5742 5.31641 22.2334 6.05176 22.7021 7.00684C23.1768 7.95605 23.417 9.0459 23.4229 10.2764V10.8652ZM20.2852 10.3291C20.2852 9.05762 20.0713 8.09375 19.6436 7.4375C19.2217 6.77539 18.6152 6.44434 17.8242 6.44434C16.2773 6.44434 15.46 7.60449 15.3721 9.9248L15.3633 10.8652C15.3633 12.1191 15.5713 13.083 15.9873 13.7568C16.4033 14.4307 17.0215 14.7676 17.8418 14.7676C18.6211 14.7676 19.2217 14.4365 19.6436 13.7744C20.0654 13.1123 20.2793 12.1602 20.2852 10.918V10.3291ZM35.0508 4.20312V12.5791C35.0508 13.5283 34.8486 14.3516 34.4443 15.0488C34.04 15.7402 33.46 16.2676 32.7041 16.6309C31.9482 16.9941 31.0547 17.1758 30.0234 17.1758C28.4648 17.1758 27.2373 16.7715 26.3408 15.9629C25.4443 15.1543 24.9873 14.0469 24.9697 12.6406V4.20312H28.0723V12.7021C28.1074 14.1025 28.7578 14.8027 30.0234 14.8027C30.6621 14.8027 31.1455 14.627 31.4736 14.2754C31.8018 13.9238 31.9658 13.3525 31.9658 12.5615V4.20312H35.0508ZM36.9844 17V4.20312H41.1064C42.2373 4.20312 43.2539 4.46094 44.1562 4.97656C45.0586 5.48633 45.7617 6.20996 46.2656 7.14746C46.7754 8.0791 47.0332 9.125 47.0391 10.2852V10.874C47.0391 12.0459 46.79 13.0977 46.292 14.0293C45.7998 14.9551 45.1025 15.6816 44.2002 16.209C43.3037 16.7305 42.3018 16.9941 41.1943 17H36.9844ZM40.0693 6.58496V14.627H41.1416C42.0264 14.627 42.7061 14.3135 43.1807 13.6865C43.6553 13.0537 43.8926 12.1162 43.8926 10.874V10.3203C43.8926 9.08398 43.6553 8.15234 43.1807 7.52539C42.7061 6.89844 42.0146 6.58496 41.1064 6.58496H40.0693ZM53.7188 4.20312H56.7949V12.9834C56.7949 13.7979 56.6045 14.5244 56.2236 15.1631C55.8486 15.8018 55.3213 16.2969 54.6416 16.6484C53.9678 17 53.2148 17.1758 52.3828 17.1758C50.9883 17.1758 49.9043 16.8242 49.1309 16.1211C48.3574 15.418 47.9707 14.4219 47.9707 13.1328H51.0645C51.0645 13.7188 51.1641 14.1436 51.3633 14.4072C51.5684 14.6709 51.9082 14.8027 52.3828 14.8027C52.8105 14.8027 53.1387 14.6445 53.3672 14.3281C53.6016 14.0059 53.7188 13.5576 53.7188 12.9834V4.20312Z" fill="#F0B41B"/>
<path d="M61.8311 14.627H67.2012V17H58.7461V4.20312H61.8311V14.627ZM78.7764 10.8652C78.7764 12.1133 78.5449 13.2178 78.082 14.1787C77.6191 15.1396 76.96 15.8809 76.1045 16.4023C75.2549 16.918 74.2852 17.1758 73.1953 17.1758C72.1055 17.1758 71.1387 16.9268 70.2949 16.4287C69.4512 15.9248 68.792 15.207 68.3174 14.2754C67.8486 13.3438 67.6025 12.2744 67.5791 11.0674V10.3467C67.5791 9.09277 67.8076 7.98828 68.2646 7.0332C68.7275 6.07227 69.3867 5.33105 70.2422 4.80957C71.1035 4.28809 72.082 4.02734 73.1777 4.02734C74.2617 4.02734 75.2285 4.28516 76.0781 4.80078C76.9277 5.31641 77.5869 6.05176 78.0557 7.00684C78.5303 7.95605 78.7705 9.0459 78.7764 10.2764V10.8652ZM75.6387 10.3291C75.6387 9.05762 75.4248 8.09375 74.9971 7.4375C74.5752 6.77539 73.9688 6.44434 73.1777 6.44434C71.6309 6.44434 70.8135 7.60449 70.7256 9.9248L70.7168 10.8652C70.7168 12.1191 70.9248 13.083 71.3408 13.7568C71.7568 14.4307 72.375 14.7676 73.1953 14.7676C73.9746 14.7676 74.5752 14.4365 74.9971 13.7744C75.4189 13.1123 75.6328 12.1602 75.6387 10.918V10.3291ZM90.8438 15.418C90.3691 15.9453 89.6748 16.3701 88.7607 16.6924C87.8467 17.0146 86.8447 17.1758 85.7549 17.1758C84.0791 17.1758 82.7402 16.6631 81.7383 15.6377C80.7363 14.6123 80.2002 13.1855 80.1299 11.3574L80.1211 10.25C80.1211 8.99023 80.3438 7.8916 80.7891 6.9541C81.2344 6.01074 81.8701 5.28711 82.6963 4.7832C83.5283 4.27344 84.4893 4.01855 85.5791 4.01855C87.1729 4.01855 88.4092 4.38477 89.2881 5.11719C90.1729 5.84375 90.6885 6.93066 90.835 8.37793H87.8643C87.7588 7.66309 87.5303 7.15332 87.1787 6.84863C86.8271 6.54395 86.3291 6.3916 85.6846 6.3916C84.9111 6.3916 84.3135 6.71973 83.8916 7.37598C83.4697 8.03223 83.2559 8.96973 83.25 10.1885V10.9619C83.25 12.2393 83.4668 13.2002 83.9004 13.8447C84.3398 14.4834 85.0283 14.8027 85.9658 14.8027C86.7686 14.8027 87.3662 14.624 87.7588 14.2666V12.2803H85.6143V10.1621H90.8438V15.418ZM103.474 10.8652C103.474 12.1133 103.242 13.2178 102.779 14.1787C102.316 15.1396 101.657 15.8809 100.802 16.4023C99.9521 16.918 98.9824 17.1758 97.8926 17.1758C96.8027 17.1758 95.8359 16.9268 94.9922 16.4287C94.1484 15.9248 93.4893 15.207 93.0146 14.2754C92.5459 13.3438 92.2998 12.2744 92.2764 11.0674V10.3467C92.2764 9.09277 92.5049 7.98828 92.9619 7.0332C93.4248 6.07227 94.084 5.33105 94.9395 4.80957C95.8008 4.28809 96.7793 4.02734 97.875 4.02734C98.959 4.02734 99.9258 4.28516 100.775 4.80078C101.625 5.31641 102.284 6.05176 102.753 7.00684C103.228 7.95605 103.468 9.0459 103.474 10.2764V10.8652ZM100.336 10.3291C100.336 9.05762 100.122 8.09375 99.6943 7.4375C99.2725 6.77539 98.666 6.44434 97.875 6.44434C96.3281 6.44434 95.5107 7.60449 95.4229 9.9248L95.4141 10.8652C95.4141 12.1191 95.6221 13.083 96.0381 13.7568C96.4541 14.4307 97.0723 14.7676 97.8926 14.7676C98.6719 14.7676 99.2725 14.4365 99.6943 13.7744C100.116 13.1123 100.33 12.1602 100.336 10.918V10.3291Z" fill="white"/>
</svg>
