<svg width="50" height="50" viewBox="0 0 50 50" fill="none" xmlns="http://www.w3.org/2000/svg">
<g clip-path="url(#clip0)">
<path d="M17.4636 18.5357V25.1264C17.4636 26.3583 18.4622 27.3569 19.6941 27.3569H35.5377C36.1119 27.3569 36.6674 27.5611 37.1049 27.933L43.6578 33.503C44.1254 33.9005 44.8439 33.5682 44.8439 32.9545V28.0768C44.8439 27.6792 45.1662 27.3569 45.5638 27.3569H47.0062C48.2382 27.3569 49.2368 26.3583 49.2368 25.1264V18.5357C49.2368 17.3038 48.2382 16.3052 47.0062 16.3052H19.6941C18.4622 16.3052 17.4636 17.3038 17.4636 18.5357V18.5357Z" fill="#FECE85"/>
<path d="M32.5364 2.96219V9.55282C32.5364 10.7848 31.5378 11.7834 30.3058 11.7834H14.4623C13.8881 11.7834 13.3326 11.9876 12.8951 12.3595L6.34216 17.9295C5.87459 18.3269 5.15603 17.9946 5.15603 17.3809V12.5032C5.15603 12.1056 4.83376 11.7834 4.43621 11.7834H2.99363C1.76169 11.7834 0.763062 10.7848 0.763062 9.55282V2.96219C0.763062 1.73026 1.76169 0.731628 2.99363 0.731628H30.3058C31.5378 0.731628 32.5364 1.73026 32.5364 2.96219V2.96219Z" fill="#D9B1EE"/>
<path d="M12.4326 11.7836H14.4626C13.8881 11.7836 13.333 11.9875 12.8949 12.3591L6.34245 17.9292C5.87419 18.3272 5.15622 17.9945 5.15622 17.3809V17.2122L10.8648 12.3591C11.303 11.9875 11.858 11.7836 12.4326 11.7836V11.7836Z" fill="#CB97E7"/>
<path d="M32.5364 34.1274V40.718C32.5364 41.9499 31.5378 42.9485 30.3058 42.9485H14.4623C13.8881 42.9485 13.3326 43.1527 12.8951 43.5246L6.34216 49.0946C5.87459 49.4921 5.15603 49.1598 5.15603 48.5461V43.6684C5.15603 43.2708 4.83376 42.9485 4.43621 42.9485H2.99363C1.76169 42.9485 0.763062 41.9499 0.763062 40.718V34.1274C0.763062 32.8954 1.76169 31.8968 2.99363 31.8968H30.3058C31.5378 31.8967 32.5364 32.8954 32.5364 34.1274Z" fill="#D9B1EE"/>
<path d="M49.2372 18.5358V25.1264C49.2372 26.3584 48.2383 27.3573 47.0062 27.3573H45.5635C45.1664 27.3573 44.8435 27.6792 44.8435 28.0772V32.9548C44.8435 33.5683 44.1256 33.901 43.6573 33.503L42.8145 32.787V28.0772C42.8145 27.6792 43.1364 27.3573 43.5345 27.3573H44.9763C46.2083 27.3573 47.2072 26.3584 47.2072 25.1264V18.5358C47.2072 17.3038 46.2083 16.3049 44.9763 16.3049H47.0062C48.2384 16.3049 49.2372 17.3038 49.2372 18.5358V18.5358Z" fill="#FEC165"/>
<path d="M32.5367 2.96204V9.55247C32.5367 10.7845 31.5378 11.7834 30.3057 11.7834H28.2758C29.5078 11.7834 30.5067 10.7845 30.5067 9.55247V2.96204C30.5067 1.73 29.5078 0.732056 28.2758 0.732056H30.3057C31.5378 0.732056 32.5367 1.72991 32.5367 2.96204V2.96204Z" fill="#CB97E7"/>
<path d="M12.4326 42.9487H14.4626C13.8881 42.9487 13.333 43.1526 12.8949 43.5242L6.34245 49.0943C5.87419 49.4924 5.15622 49.1597 5.15622 48.5461V48.3773L10.8648 43.5242C11.303 43.1526 11.858 42.9487 12.4326 42.9487V42.9487Z" fill="#CB97E7"/>
<path d="M32.5367 34.1273V40.7177C32.5367 41.9497 31.5378 42.9486 30.3057 42.9486H28.2758C29.5078 42.9486 30.5067 41.9497 30.5067 40.7177V34.1273C30.5067 32.8952 29.5078 31.8963 28.2758 31.8963H30.3057C31.5378 31.8963 32.5367 32.8952 32.5367 34.1273V34.1273Z" fill="#CB97E7"/>
<path d="M2.99364 12.515H4.4244V17.3811C4.4244 17.9534 4.74716 18.4582 5.26659 18.6984C5.46464 18.79 5.67323 18.8349 5.87997 18.8349C6.21561 18.8349 6.54598 18.7163 6.81591 18.4869L8.83299 16.7725C9.1409 16.5107 9.17831 16.049 8.91659 15.7412C8.65487 15.4332 8.19305 15.3959 7.88534 15.6576L5.88759 17.3555V12.5033C5.88759 11.7029 5.23641 11.0519 4.43612 11.0519H2.99364C2.16718 11.0519 1.49471 10.3795 1.49471 9.55293V2.96221C1.49471 2.13564 2.16718 1.46328 2.99364 1.46328H30.3058C31.1323 1.46328 31.8048 2.13564 31.8048 2.96221V9.55293C31.8048 10.3795 31.1323 11.0519 30.3058 11.0519H14.4623C13.7153 11.0519 12.9905 11.3184 12.4213 11.8021L10.4518 13.4757C10.1439 13.7373 10.1064 14.1991 10.3682 14.5069C10.6299 14.8148 11.0915 14.8522 11.3994 14.5906L13.3688 12.9169C13.6737 12.6577 14.062 12.5149 14.4622 12.5149H30.3057C31.9391 12.5149 33.268 11.1861 33.268 9.55273V2.96221C33.2681 1.32881 31.9392 0 30.3058 0H2.99364C1.36024 0 0.0314331 1.32881 0.0314331 2.96221V9.55293C0.0314331 11.1862 1.36024 12.515 2.99364 12.515V12.515Z" fill="black"/>
<path d="M27.3534 5.38046C27.7575 5.38046 28.085 5.05292 28.085 4.64882C28.085 4.24471 27.7575 3.91718 27.3534 3.91718H23.4503C23.0462 3.91718 22.7186 4.24471 22.7186 4.64882C22.7186 5.05282 23.0462 5.38046 23.4503 5.38046H27.3534Z" fill="black"/>
<path d="M5.946 5.38046H20.0487C20.4528 5.38046 20.7804 5.05292 20.7804 4.64882C20.7804 4.24471 20.4528 3.91718 20.0487 3.91718H5.946C5.54189 3.91718 5.21436 4.24471 5.21436 4.64882C5.21436 5.05292 5.54199 5.38046 5.946 5.38046Z" fill="black"/>
<path d="M5.946 8.59786H27.3534C27.7575 8.59786 28.0851 8.27033 28.0851 7.86622C28.0851 7.46212 27.7575 7.13458 27.3534 7.13458H5.946C5.54189 7.13458 5.21436 7.46212 5.21436 7.86622C5.21436 8.27033 5.54199 8.59786 5.946 8.59786Z" fill="black"/>
<path d="M30.3058 31.165H2.99364C1.36034 31.165 0.0314331 32.4938 0.0314331 34.1272V40.718C0.0314331 42.3514 1.36024 43.6802 2.99364 43.6802H4.4244V48.5461C4.4244 49.1185 4.74716 49.6233 5.26669 49.8636C5.46464 49.9552 5.67333 50 5.87997 50C6.21571 50 6.54608 49.8815 6.816 49.6521L13.3689 44.082C13.6738 43.8229 14.0621 43.6802 14.4623 43.6802H30.3058C31.9392 43.6802 33.2681 42.3514 33.2681 40.718V34.1272C33.2681 32.4939 31.9392 31.165 30.3058 31.165ZM31.8048 40.718C31.8048 41.5444 31.1323 42.2169 30.3058 42.2169H14.4623C13.7153 42.2169 12.9904 42.4833 12.4213 42.9672L5.88759 48.5205V43.6685C5.88759 42.8681 5.23641 42.2169 4.43612 42.2169H2.99364C2.16718 42.2169 1.49471 41.5444 1.49471 40.718V34.1272C1.49471 33.3007 2.16718 32.6283 2.99364 32.6283H30.3058C31.1323 32.6283 31.8048 33.3007 31.8048 34.1272V40.718Z" fill="black"/>
<path d="M27.5485 35.0824H20.8713C20.4672 35.0824 20.1396 35.4099 20.1396 35.814C20.1396 36.2181 20.4672 36.5457 20.8713 36.5457H27.5485C27.9526 36.5457 28.2802 36.2181 28.2802 35.814C28.2802 35.4099 27.9526 35.0824 27.5485 35.0824Z" fill="black"/>
<path d="M6.14113 36.5456H17.4636C17.8677 36.5456 18.1952 36.2181 18.1952 35.814C18.1952 35.4099 17.8677 35.0823 17.4636 35.0823H6.14113C5.73702 35.0823 5.40948 35.4099 5.40948 35.814C5.40948 36.2181 5.73712 36.5456 6.14113 36.5456V36.5456Z" fill="black"/>
<path d="M27.5485 38.2996H12.4669C12.0628 38.2996 11.7353 38.6272 11.7353 39.0313C11.7353 39.4354 12.0628 39.7629 12.4669 39.7629H27.5485C27.9526 39.7629 28.2802 39.4354 28.2802 39.0313C28.2802 38.6272 27.9526 38.2996 27.5485 38.2996Z" fill="black"/>
<path d="M9.06524 38.2996H6.14112C5.73702 38.2996 5.40948 38.6272 5.40948 39.0313C5.40948 39.4354 5.73702 39.7629 6.14112 39.7629H9.06524C9.46934 39.7629 9.79688 39.4354 9.79688 39.0313C9.79688 38.6272 9.46934 38.2996 9.06524 38.2996Z" fill="black"/>
<path d="M47.0063 15.5735H19.6941C18.0608 15.5735 16.7319 16.9024 16.7319 18.5358V25.1264C16.7319 26.7598 18.0607 28.0886 19.6941 28.0886H25.2276C25.6317 28.0886 25.9593 27.761 25.9593 27.3569C25.9593 26.9529 25.6317 26.6253 25.2276 26.6253H19.6941C18.8677 26.6253 18.1952 25.9528 18.1952 25.1263V18.5357C18.1952 17.7091 18.8677 17.0367 19.6941 17.0367H47.0063C47.8328 17.0367 48.5053 17.7091 48.5053 18.5357V25.1263C48.5053 25.9528 47.8328 26.6253 47.0063 26.6253H45.5638C44.7635 26.6253 44.1123 27.2764 44.1123 28.0768L44.1121 32.929L37.5787 27.3755C37.0094 26.8917 36.2846 26.6253 35.5376 26.6253H28.5991C28.195 26.6253 27.8675 26.9528 27.8675 27.3569C27.8675 27.761 28.195 28.0886 28.5991 28.0886H35.5376C35.9378 28.0886 36.3261 28.2313 36.6311 28.4904L43.184 34.0604C43.454 34.2899 43.7843 34.4084 44.1199 34.4084C44.3266 34.4084 44.5353 34.3635 44.7332 34.272C45.2527 34.0317 45.5755 33.5269 45.5755 32.9546V28.0886H47.0062C48.6396 28.0886 49.9685 26.7598 49.9685 25.1264V18.5358C49.9686 16.9025 48.6397 15.5735 47.0063 15.5735V15.5735Z" fill="black"/>
<path d="M44.0539 19.4908H22.6465C22.2424 19.4908 21.9148 19.8184 21.9148 20.2225C21.9148 20.6266 22.2424 20.9541 22.6465 20.9541H44.0539C44.458 20.9541 44.7855 20.6266 44.7855 20.2225C44.7855 19.8184 44.458 19.4908 44.0539 19.4908Z" fill="black"/>
<path d="M22.6465 24.1714H29.9762C30.3803 24.1714 30.7079 23.8439 30.7079 23.4398C30.7079 23.0358 30.3803 22.7081 29.9762 22.7081H22.6465C22.2424 22.7081 21.9148 23.0357 21.9148 23.4398C21.9148 23.8439 22.2425 24.1714 22.6465 24.1714V24.1714Z" fill="black"/>
<path d="M44.0539 22.7081H33.3502C32.9461 22.7081 32.6185 23.0357 32.6185 23.4398C32.6185 23.8439 32.9461 24.1714 33.3502 24.1714H44.0539C44.458 24.1714 44.7855 23.8439 44.7855 23.4398C44.7855 23.0358 44.458 22.7081 44.0539 22.7081Z" fill="black"/>
</g>
<defs>
<clipPath id="clip0">
<rect width="50" height="50" fill="white"/>
</clipPath>
</defs>
</svg>
