<svg width="51" height="50" viewBox="0 0 51 50" fill="none" xmlns="http://www.w3.org/2000/svg">
<g clip-path="url(#clip0)">
<path d="M36.9164 49.2679H14.203C12.345 49.2679 10.8387 47.7616 10.8387 45.9036V4.09637C10.8387 2.23837 12.345 0.732117 14.203 0.732117H36.9164C38.7744 0.732117 40.2806 2.23837 40.2806 4.09637V45.9036C40.2806 47.7616 38.7744 49.2679 36.9164 49.2679Z" fill="#8D9CA8"/>
<path d="M40.2803 4.09676V45.9031C40.2803 47.7619 38.774 49.2682 36.9162 49.2682H34.9637C36.8215 49.2682 38.3279 47.7619 38.3279 45.9031V4.09676C38.3279 2.23798 36.8215 0.731628 34.9637 0.731628H36.9162C38.774 0.731726 40.2803 2.23807 40.2803 4.09676Z" fill="#7A8C98"/>
<path d="M35.8042 3.69855H31.8353C31.4659 3.69855 31.1275 3.90529 30.9589 4.23409L29.814 6.4672C29.5543 6.97384 29.1033 7.28038 28.6181 7.28038H22.501C22.0159 7.28038 21.5648 6.97384 21.3051 6.4672L20.1602 4.23409C19.9916 3.90538 19.6533 3.69855 19.2838 3.69855H15.3149C14.5963 3.69855 14.0145 4.28038 14.0145 4.99786V45.0021C14.0145 45.7197 14.5963 46.3014 15.3149 46.3014H35.8041C36.5227 46.3014 37.1045 45.7196 37.1045 45.0021V4.99786C37.1046 4.28038 36.5228 3.69855 35.8042 3.69855Z" fill="#F2FBFF"/>
<path d="M35.8042 3.69855H33.8518C34.5703 3.69855 35.1522 4.28038 35.1522 4.99786V45.0021C35.1522 45.7197 34.5703 46.3014 33.8518 46.3014H35.8042C36.5228 46.3014 37.1046 45.7196 37.1046 45.0021V4.99786C37.1046 4.28038 36.5228 3.69855 35.8042 3.69855Z" fill="#DFF6FD"/>
<path d="M49.011 13.3325V16.8795C49.011 17.7903 48.2726 18.5287 47.3617 18.5287H35.6477C35.2232 18.5287 34.8124 18.6797 34.4889 18.9546L29.6439 23.0728C29.2982 23.3667 28.7669 23.121 28.7669 22.6673V19.0609C28.7669 18.767 28.5286 18.5287 28.2347 18.5287H27.1682C26.2574 18.5287 25.519 17.7903 25.519 16.8795V13.3325C25.519 12.4217 26.2574 11.6833 27.1682 11.6833H47.3618C48.2726 11.6833 49.011 12.4217 49.011 13.3325Z" fill="#FE93BB"/>
<path d="M2.269 26.6492V30.1962C2.269 31.107 3.00738 31.8454 3.91822 31.8454H15.6324C16.0569 31.8454 16.4676 31.9964 16.7911 32.2713L21.6361 36.3896C21.9818 36.6834 22.513 36.4377 22.513 35.984V32.3776C22.513 32.0837 22.7513 31.8454 23.0453 31.8454H24.1118C25.0226 31.8454 25.761 31.107 25.761 30.1962V26.6492C25.761 25.7384 25.0226 25 24.1118 25H3.91822C3.00738 25 2.269 25.7384 2.269 26.6492Z" fill="#D1F19E"/>
<path d="M49.0108 13.3321V16.8797C49.0108 17.7906 48.2728 18.5285 47.362 18.5285H45.4095C46.3204 18.5285 47.0583 17.7906 47.0583 16.8797V13.3321C47.0583 12.4212 46.3204 11.6832 45.4095 11.6832H47.362C48.2728 11.6832 49.0108 12.4212 49.0108 13.3321Z" fill="#FE76A8"/>
<path d="M25.7608 26.6489V30.1965C25.7608 31.1073 25.0228 31.8453 24.1119 31.8453H23.0449C22.7511 31.8453 22.5129 32.0835 22.5129 32.3774V35.9836C22.5129 36.4375 21.9819 36.6836 21.6363 36.3898L20.5605 35.475V32.3775C20.5605 32.0836 20.7987 31.8454 21.0925 31.8454H22.1595C23.0703 31.8454 23.8083 31.1074 23.8083 30.1966V26.649C23.8083 25.7381 23.0703 25.0001 22.1595 25.0001H24.1119C25.0227 25 25.7608 25.7381 25.7608 26.6489Z" fill="#BBEC6C"/>
<path d="M47.3619 10.9511H41.0128V4.09639C41.0127 1.8376 39.1751 0 36.9163 0H14.203C11.9442 0 10.1066 1.8376 10.1066 4.09639V24.2678H3.91811C2.60502 24.2678 1.53676 25.336 1.53676 26.6491V30.1961C1.53676 31.5092 2.60502 32.5774 3.91811 32.5774H5.44203C5.84643 32.5774 6.17416 32.2496 6.17416 31.8452C6.17416 31.4408 5.84633 31.1131 5.44203 31.1131H3.91811C3.41244 31.1131 3.00111 30.7017 3.00111 30.196V26.649C3.00111 26.1434 3.41244 25.732 3.91811 25.732H24.1118C24.6174 25.732 25.0288 26.1434 25.0288 26.649V30.196C25.0288 30.7017 24.6174 31.1131 24.1118 31.1131H23.0453C22.3481 31.1131 21.7808 31.6803 21.7808 32.3775V35.5516L17.2653 31.7134C16.8099 31.3263 16.23 31.1132 15.6324 31.1132H8.84662C8.44223 31.1132 8.11449 31.441 8.11449 31.8453C8.11449 32.2497 8.44233 32.5775 8.84662 32.5775H10.1065V45.9036C10.1065 48.1624 11.9441 50 14.2029 50H36.9163C39.175 50 41.0127 48.1624 41.0127 45.9036V19.2608H47.3618C48.6748 19.2608 49.7431 18.1926 49.7431 16.8795V13.3325C49.7432 12.0194 48.6749 10.9511 47.3619 10.9511ZM14.7468 32.5775H15.6323C15.8829 32.5775 16.1259 32.6669 16.3168 32.8291L21.1619 36.9474C21.397 37.1473 21.6847 37.2505 21.9772 37.2505C22.1572 37.2505 22.339 37.2113 22.5115 37.1316C22.964 36.9224 23.2452 36.4826 23.2452 35.984V32.5775H24.1118C25.4248 32.5775 26.4931 31.5093 26.4931 30.1962V26.6492C26.4931 25.3361 25.4248 24.2679 24.1118 24.2679H14.7468V4.99785C14.7468 4.68506 15.0017 4.43066 15.315 4.43066H19.2839C19.3791 4.43066 19.4653 4.4833 19.5087 4.56807L20.6536 6.80098C21.0366 7.54824 21.7445 8.0124 22.501 8.0124H28.6181C29.3746 8.0124 30.0826 7.54824 30.4656 6.80107L31.6105 4.56807C31.6539 4.4833 31.7401 4.43066 31.8353 4.43066H35.8042C36.1175 4.43066 36.3724 4.68516 36.3724 4.99785V6.00371C36.3724 6.40811 36.7002 6.73594 37.1045 6.73594C37.5089 6.73594 37.8367 6.40811 37.8367 6.00371V4.99785C37.8367 3.87764 36.9248 2.96631 35.8041 2.96631H31.8353C31.1881 2.96631 30.6027 3.32402 30.3075 3.9L29.1625 6.13311C29.0314 6.38906 28.8228 6.54814 28.6182 6.54814H22.5011C22.2965 6.54814 22.0879 6.38916 21.9568 6.13311L20.8119 3.9C20.5166 3.32412 19.9312 2.96631 19.284 2.96631H15.3151C14.1943 2.96631 13.2826 3.87764 13.2826 4.99785V24.2678H11.571V4.09639C11.571 2.64512 12.7518 1.46436 14.2031 1.46436H36.9163C38.3676 1.46436 39.5484 2.64512 39.5484 4.09639V10.9511H37.8368V9.41562C37.8368 9.01123 37.5089 8.6835 37.1046 8.6835C36.7002 8.6835 36.3725 9.01133 36.3725 9.41562V10.9511H27.1683C25.8552 10.9511 24.787 12.0193 24.787 13.3324V16.8794C24.787 18.1925 25.8552 19.2607 27.1683 19.2607H28.0349V22.6672C28.0349 23.1658 28.3161 23.6056 28.7686 23.8148C28.9411 23.8946 29.1229 23.9337 29.3029 23.9337C29.5954 23.9337 29.883 23.8305 30.1182 23.6306L34.9632 19.5124C35.154 19.3501 35.3972 19.2607 35.6478 19.2607H36.3725V45.0021C36.3725 45.3148 36.1176 45.5692 35.8043 45.5692H15.3151C15.0018 45.5692 14.7469 45.3148 14.7469 45.0021V32.5775H14.7468ZM39.5484 45.9036C39.5484 47.3549 38.3676 48.5356 36.9163 48.5356H14.203C12.7517 48.5356 11.5709 47.3549 11.5709 45.9036V32.5775H13.2825V45.0021C13.2825 46.1224 14.1943 47.0337 15.315 47.0337H35.8042C36.9249 47.0337 37.8368 46.1224 37.8368 45.0021V19.2608H39.5484V45.9036ZM48.2788 16.8795C48.2788 17.3852 47.8675 17.7965 47.3619 17.7965H35.6477C35.05 17.7965 34.4702 18.0097 34.0148 18.3967L29.4993 22.2349V19.0608C29.4993 18.3636 28.932 17.7964 28.2348 17.7964H27.1683C26.6626 17.7964 26.2513 17.385 26.2513 16.8794V13.3324C26.2513 12.8268 26.6626 12.4154 27.1683 12.4154H47.362C47.8676 12.4154 48.2789 12.8269 48.2789 13.3324V16.8795H48.2788Z" fill="black"/>
<g clip-path="url(#clip1)">
<path d="M25.9819 1.92533V5.52813C25.9819 6.4533 26.732 7.20334 27.6571 7.20334H39.5556C39.9868 7.20334 40.404 7.35669 40.7326 7.63594L45.6539 11.819C46.005 12.1175 46.5447 11.868 46.5447 11.4071V7.74387C46.5447 7.44528 46.7867 7.20324 47.0853 7.20324H48.1686C49.0937 7.20324 49.8438 6.4532 49.8438 5.52803V1.92533C49.8438 1.00016 49.0937 0.250122 48.1686 0.250122H27.6571C26.732 0.250122 25.9819 1.00016 25.9819 1.92533Z" fill="#D1F19E"/>
<path d="M49.8441 1.92566V5.52788C49.8441 6.45285 49.0939 7.20299 48.169 7.20299H47.0848C46.7869 7.20299 46.5446 7.44522 46.5446 7.7441V11.4069C46.5446 11.8679 46.0055 12.1179 45.6539 11.8191L44.6127 10.9341V7.7441C44.6127 7.44522 44.8549 7.20299 45.1538 7.20299H46.237C47.1619 7.20299 47.9121 6.45285 47.9121 5.52788V1.92566C47.9121 1.00069 47.1619 0.250549 46.237 0.250549H48.169C49.0939 0.250549 49.8441 1.00069 49.8441 1.92566Z" fill="#BBEC6C"/>
<path d="M70.6606 48.7733H29.8381C29.1531 48.7733 28.5977 48.2179 28.5977 47.5329V16.9868C28.5977 16.3018 29.1531 15.7464 29.8381 15.7464H70.6606C71.3456 15.7464 71.901 16.3018 71.901 16.9868V47.5329C71.901 48.2179 71.3457 48.7733 70.6606 48.7733Z" fill="#F2FBFF"/>
<path d="M50.2494 32.2598L31.2577 48.7733H50.2494H69.2411L50.2494 32.2598Z" fill="#C8EFFE"/>
<path d="M28.5977 16.9868V24.6233L49.2745 34.7503C49.8895 35.0516 50.6092 35.0516 51.2241 34.7503L71.9009 24.6233V16.9868C71.9009 16.3017 71.3455 15.7464 70.6605 15.7464H29.8381C29.1531 15.7464 28.5977 16.3018 28.5977 16.9868Z" fill="#99E6FC"/>
<path d="M40.2582 8.19406L45.1795 12.3771C45.4162 12.5784 45.7059 12.6824 46.0004 12.6824C46.1816 12.6824 46.3647 12.643 46.5384 12.5627C46.9941 12.352 47.2772 11.9092 47.2772 11.4071V7.93581H48.1686C49.4962 7.93581 50.5762 6.85573 50.5762 5.52814V1.92534C50.5762 0.597755 49.4962 -0.482422 48.1686 -0.482422H27.6571C26.3296 -0.482422 25.2494 0.597755 25.2494 1.92534V5.52814C25.2494 6.85573 26.3296 7.93581 27.6571 7.93581H39.5556C39.8128 7.93581 40.0622 8.02752 40.2582 8.19406ZM26.7145 5.52814V1.92534C26.7145 1.40562 27.1374 0.982688 27.6571 0.982688H48.1686C48.6883 0.982688 49.1111 1.40562 49.1111 1.92534V5.52814C49.1111 6.04787 48.6883 6.4707 48.1686 6.4707H47.0853C46.3832 6.4707 45.8121 7.04189 45.8121 7.74388V10.9919L41.2071 7.07764C40.7466 6.68617 40.1601 6.4706 39.5557 6.4706H27.6571C27.1374 6.4707 26.7145 6.04787 26.7145 5.52814Z" fill="black"/>
<path d="M74.5168 11.4115C74.9214 11.4115 75.2494 11.0835 75.2494 10.679V9.97189C75.2494 8.65808 74.1805 7.58923 72.8667 7.58923H55.0316C53.7178 7.58923 52.649 8.65808 52.649 9.97189V15.0139H29.8381C28.7502 15.0139 27.8652 15.899 27.8652 16.9868V47.5329C27.8652 48.6208 28.7502 49.5058 29.8381 49.5058H70.6607C71.7486 49.5058 72.6336 48.6207 72.6336 47.5329V20.8191H72.8668C74.1806 20.8191 75.2495 19.7502 75.2495 18.4365V14.0767C75.2495 13.6722 74.9215 13.3442 74.5169 13.3442C74.1124 13.3442 73.7844 13.6722 73.7844 14.0767V18.4365C73.7844 18.9424 73.3728 19.354 72.8668 19.354H63.5155C62.9176 19.354 62.3375 19.5673 61.8817 19.9546L57.3638 23.7947V20.619C57.3638 19.9215 56.7962 19.354 56.0987 19.354H55.0316C54.5257 19.354 54.1141 18.9424 54.1141 18.4365V9.97189C54.1141 9.46594 54.5257 9.05434 55.0316 9.05434H72.8668C73.3728 9.05434 73.7844 9.46594 73.7844 9.97189V10.679C73.7843 11.0835 74.1123 11.4115 74.5168 11.4115ZM33.2166 48.0407L48.18 35.03L48.9523 35.4083C49.3645 35.6101 49.8069 35.7111 50.2493 35.7111C50.6917 35.7111 51.1343 35.6101 51.5463 35.4083L52.3188 35.03L67.2821 48.0408H33.2166V48.0407ZM71.1685 47.5329C71.1685 47.8129 70.9407 48.0407 70.6607 48.0407H69.515L53.747 34.3304L71.1685 25.7978V47.5329ZM55.0316 20.819H55.8987V24.2272C55.8987 24.726 56.18 25.1661 56.6328 25.3755C56.8054 25.4553 56.9873 25.4944 57.1674 25.4944C57.46 25.4944 57.7479 25.3911 57.9832 25.1912L62.8306 21.0708C63.0217 20.9084 63.265 20.819 63.5156 20.819H71.1687V24.1664L50.9019 34.0925C50.4873 34.2956 50.0116 34.2955 49.5968 34.0925L37.9007 28.3641C37.5375 28.186 37.0985 28.3364 36.9206 28.6998C36.7427 29.0632 36.8929 29.5019 37.2563 29.6799L46.7517 34.3305L30.9837 48.0407H29.8381C29.5581 48.0407 29.3303 47.8128 29.3303 47.5329V25.7978L34.1856 28.1758C34.5487 28.3536 34.9877 28.2034 35.1656 27.8401C35.3436 27.4767 35.1934 27.038 34.8299 26.86L29.3302 24.1664V16.9867C29.3302 16.7067 29.558 16.4789 29.838 16.4789H52.6489V18.4364C52.649 19.7502 53.7178 20.819 55.0316 20.819Z" fill="black"/>
</g>
</g>
<defs>
<clipPath id="clip0">
<rect width="50" height="50" fill="white" transform="translate(0.639999)"/>
</clipPath>
<clipPath id="clip1">
<rect width="50" height="50" fill="white" transform="translate(25.2494 -0.488281)"/>
</clipPath>
</defs>
</svg>
