<svg width="50" height="50" viewBox="0 0 50 50" fill="none" xmlns="http://www.w3.org/2000/svg">
<g clip-path="url(#clip0)">
<path d="M44.4299 43.1188H5.57871C4.47197 43.1188 3.5749 42.2216 3.5749 41.115V15.6572C3.5749 14.5505 4.47207 13.6534 5.57871 13.6534H44.4299C45.5366 13.6534 46.4337 14.5505 46.4337 15.6572V41.1149C46.4338 42.2216 45.5366 43.1188 44.4299 43.1188Z" fill="#C5D3DD"/>
<path d="M46.4334 15.6571V41.1149C46.4334 42.2219 45.5361 43.119 44.4303 43.119H42.4798C43.5857 43.119 44.4829 42.2218 44.4829 41.1149V15.6571C44.4829 14.5502 43.5856 13.653 42.4798 13.653H44.4303C45.5361 13.653 46.4334 14.5503 46.4334 15.6571Z" fill="#B6C4CF"/>
<path d="M43.3253 17.3681V39.4047C43.3253 39.8309 42.9801 40.1761 42.5529 40.1761H7.45576C7.02861 40.1761 6.6834 39.8309 6.6834 39.4047V17.3681C6.6834 16.9419 7.02861 16.5957 7.45576 16.5957H42.5529C42.9801 16.5957 43.3253 16.9419 43.3253 17.3681Z" fill="#F2FBFF"/>
<path d="M43.3253 17.3678V39.4044C43.3253 39.8306 42.9801 40.1758 42.5529 40.1758H40.6024C41.0296 40.1758 41.3748 39.8306 41.3748 39.4044V17.3678C41.3748 16.9416 41.0296 16.5954 40.6024 16.5954H42.5529C42.9801 16.5953 43.3253 16.9416 43.3253 17.3678Z" fill="#DFF6FD"/>
<path d="M46.6598 49.2535H3.34892C1.9081 49.2535 0.740135 48.0856 0.740135 46.6447V43.7213C0.740135 43.3887 1.00976 43.119 1.34248 43.119H48.6663C48.9989 43.119 49.2686 43.3886 49.2686 43.7213V46.6447C49.2685 48.0855 48.1006 49.2535 46.6598 49.2535Z" fill="#8D9CA8"/>
<path d="M49.2684 43.7208V46.6446C49.2684 48.085 48.1001 49.2534 46.6597 49.2534H44.7092C46.1496 49.2534 47.318 48.085 47.318 46.6446V43.7208C47.318 43.3883 47.0488 43.119 46.7162 43.119H48.6667C48.9992 43.1191 49.2684 43.3883 49.2684 43.7208Z" fill="#7A8C98"/>
<path d="M28.3753 46.1861H21.6334C20.5575 46.1861 19.6854 45.314 19.6854 44.2381V43.1188H30.3234V44.2381C30.3233 45.314 29.4512 46.1861 28.3753 46.1861Z" fill="#596C76"/>
<path d="M30.3233 43.1191V44.2377C30.3233 45.3144 29.4515 46.1862 28.3758 46.1862H26.4419C27.5176 46.1862 28.3894 45.3144 28.3894 44.2377V43.1191H30.3233Z" fill="#465A61"/>
<path d="M24.9257 40.1793H11.6903V38.3904C11.6903 34.7355 14.6531 31.7727 18.308 31.7727C21.9628 31.7727 24.9257 34.7355 24.9257 38.3904V40.1793Z" fill="#99E6FC"/>
<path d="M24.9253 38.3905V40.1791H23.0538V38.3905C23.0538 36.5629 22.3126 34.9089 21.115 33.7114C20.1262 32.7225 18.8252 32.0437 17.3721 31.8389C17.6783 31.795 17.9904 31.7726 18.3083 31.7726C20.1359 31.7726 21.7899 32.5138 22.9875 33.7114C24.1852 34.9089 24.9253 36.5629 24.9253 38.3905Z" fill="#62DBFB"/>
<path d="M18.308 33.7974C17.43 33.7974 16.7183 33.0856 16.7183 32.2076V28.5433H19.8979V32.2076C19.8978 33.0856 19.186 33.7974 18.308 33.7974Z" fill="#FED2A4"/>
<path d="M19.8976 28.5433V32.2082C19.8976 33.086 19.1855 33.798 18.3078 33.798C18.019 33.798 17.7465 33.7209 17.513 33.584C17.9881 33.3103 18.3078 32.796 18.3078 32.2082V28.5433H19.8976Z" fill="#FFBD86"/>
<path d="M18.3084 30.3499C14.8689 30.3499 12.0807 27.5616 12.0807 24.1221V19.0437H18.3084H24.5361V24.1221C24.536 27.5617 21.7479 30.3499 18.3084 30.3499Z" fill="#FED2A4"/>
<path d="M24.5362 19.0436V24.1217C24.5362 27.5615 21.748 30.3496 18.3083 30.3496C17.9767 30.3496 17.651 30.3233 17.333 30.2736C20.3095 29.8055 22.5856 27.2298 22.5856 24.1217V19.0436H24.5362Z" fill="#FFBD86"/>
<path d="M25.6694 17.2517C25.4935 17.0042 25.445 16.6901 25.5179 16.3952C25.6728 15.7684 25.7409 15.1044 25.7612 14.4468C25.7793 13.8607 25.7386 13.2703 25.6446 12.6891C25.5432 12.0613 24.9361 11.6458 24.3141 11.778C23.9 11.866 23.5091 11.9427 23.4489 11.9546C21.6171 12.3166 19.8708 12.3562 18.015 12.4821C16.3261 12.5968 14.6313 12.8476 13.1032 13.6168C12.0094 14.1674 11.3267 15.2341 11.3193 16.3943V16.3979C11.318 16.635 11.2413 16.8667 11.0951 17.0534C10.3624 17.9895 9.95156 19.1533 9.95156 20.3683V22.8687H12.0693L12.0804 19.5127C12.0816 19.1251 12.5055 18.896 12.8367 19.0973C12.8396 19.099 12.8425 19.1008 12.8454 19.1026C13.7363 19.6394 14.8451 19.8468 15.8958 19.9639C17.3474 20.1257 18.8979 20.1344 20.3554 20.0171C21.0649 19.96 21.7778 19.8614 22.4606 19.6541C22.7954 19.5525 23.1237 19.4263 23.4342 19.2631C23.5508 19.2017 23.6616 19.1362 23.7672 19.0666C24.0965 18.8498 24.5345 19.0797 24.5358 19.4739L24.547 22.8687H26.6648V20.3682C26.665 19.2377 26.3092 18.1513 25.6694 17.2517Z" fill="#596C76"/>
<path d="M26.6651 20.368V22.8686H24.9253V20.368C24.9253 19.2377 24.5693 18.1513 23.9296 17.2521C23.754 17.0043 23.7053 16.6904 23.7784 16.3949C23.9335 15.7688 24.0008 15.1046 24.0213 14.4463C24.0398 13.8602 23.9988 13.2701 23.9053 12.6889C23.8556 12.3787 23.6819 12.1213 23.4449 11.9555C23.4459 11.9555 23.4479 11.9545 23.4488 11.9545C23.5093 11.9428 23.9004 11.8658 24.3139 11.7781C24.9361 11.6454 25.5437 12.0609 25.6451 12.6889C25.7388 13.2701 25.7797 13.8602 25.7611 14.4463C25.7406 15.1046 25.6724 15.7688 25.5183 16.3949C25.4451 16.6904 25.4939 17.0044 25.6694 17.2521C26.3092 18.1513 26.6651 19.2377 26.6651 20.368Z" fill="#465A61"/>
<path d="M12.0918 24.0881H11.2707C10.292 24.0881 9.49854 23.2947 9.49854 22.3159C9.49854 21.3372 10.2919 20.5438 11.2707 20.5438H12.0918V24.0881Z" fill="#FED2A4"/>
<path d="M24.536 24.0881H25.3571C26.3358 24.0881 27.1293 23.2947 27.1293 22.3159C27.1293 21.3372 26.3359 20.5438 25.3571 20.5438H24.536V24.0881Z" fill="#FED2A4"/>
<path d="M49.2231 22.0953V30.205C49.2231 31.078 48.5153 31.7858 47.6423 31.7858H39.7756C39.3687 31.7858 38.9749 31.9305 38.6648 32.1941L34.0206 36.1418C33.6893 36.4234 33.18 36.188 33.18 35.753V32.2961C33.18 32.0143 32.9516 31.7859 32.6698 31.7859H31.6475C30.7744 31.7859 30.0666 31.0781 30.0666 30.2051V22.0954C30.0666 21.2223 30.7744 20.5145 31.6475 20.5145H47.6424C48.5154 20.5144 49.2231 21.2222 49.2231 22.0953Z" fill="#FECE85"/>
<path d="M37.8249 31.7861H39.7754C39.3688 31.7861 38.9747 31.9305 38.6646 32.1938L34.0205 36.1416C33.689 36.4234 33.1799 36.1884 33.1799 35.7534V35.1985L36.7142 32.1938C37.0242 31.9305 37.4183 31.7861 37.8249 31.7861Z" fill="#FEC165"/>
<path d="M49.2235 22.0951V30.2053C49.2235 31.0782 48.5155 31.7862 47.6427 31.7862H45.6922C46.5651 31.7862 47.2731 31.0782 47.2731 30.2053V22.0951C47.2731 21.2223 46.5651 20.5143 45.6922 20.5143H47.6427C48.5155 20.5143 49.2235 21.2223 49.2235 22.0951Z" fill="#FEC165"/>
<path d="M0.731445 2.03064V4.79236C0.731445 5.50154 1.30635 6.07644 2.01553 6.07644H11.1363C11.4669 6.07644 11.7867 6.19402 12.0386 6.40808L15.8109 9.61462C16.0801 9.84343 16.4937 9.65212 16.4937 9.2989V6.4908C16.4937 6.26189 16.6793 6.07634 16.9082 6.07634H17.7387C18.4478 6.07634 19.0227 5.50144 19.0227 4.79226V2.03054C19.0227 1.32136 18.4478 0.74646 17.7387 0.74646H2.01553C1.30635 0.74646 0.731445 1.32136 0.731445 2.03064Z" fill="#D9B1EE"/>
<path d="M19.0231 2.03047V4.79238C19.0231 5.50137 18.4478 6.07676 17.7388 6.07676H16.9078C16.6796 6.07676 16.4934 6.26201 16.4934 6.49121V9.29892C16.4934 9.65195 16.0799 9.84316 15.8106 9.61494L14.5429 8.5373V6.49121C14.5429 6.26201 14.7292 6.07676 14.9573 6.07676H15.7883C16.4973 6.07676 17.0727 5.50137 17.0727 4.79238V2.03047C17.0727 1.32148 16.4973 0.74707 15.7883 0.74707H17.7388C18.4478 0.746973 19.0231 1.32139 19.0231 2.03047Z" fill="#CB97E7"/>
<path d="M16.0143 21.8504C15.6103 21.8504 15.2828 22.1778 15.2828 22.5818V23.6463C15.2828 24.0502 15.6103 24.3777 16.0143 24.3777C16.4182 24.3777 16.7457 24.0503 16.7457 23.6463V22.5818C16.7456 22.1779 16.4182 21.8504 16.0143 21.8504Z" fill="black"/>
<path d="M20.6024 21.8504C20.1985 21.8504 19.871 22.1778 19.871 22.5818V23.6463C19.871 24.0502 20.1984 24.3777 20.6024 24.3777C21.0064 24.3777 21.3339 24.0503 21.3339 23.6463V22.5818C21.3339 22.1779 21.0064 21.8504 20.6024 21.8504Z" fill="black"/>
<path d="M48.6662 42.3874H46.8502C47.051 42.007 47.1652 41.5742 47.1652 41.1151V32.5174H47.6423C48.9173 32.5174 49.9546 31.4801 49.9546 30.2051V22.0953C49.9546 20.8203 48.9173 19.783 47.6423 19.783H47.1652V15.6572C47.1652 14.1489 45.9382 12.9219 44.4299 12.9219H26.4164C26.4017 12.8053 26.3856 12.6887 26.3668 12.5722C26.2867 12.0764 26.0029 11.6291 25.5883 11.345C25.1735 11.0608 24.6535 10.9577 24.1621 11.0622C23.9842 11.1001 23.6933 11.1607 23.3179 11.2346L23.3072 11.2367C21.8929 11.5162 20.5267 11.5972 19.0803 11.6828C18.7121 11.7046 18.3411 11.7266 17.9656 11.7521C16.4001 11.8583 14.5737 12.0824 12.8609 12.9218H5.57871C4.07051 12.9218 2.84336 14.1488 2.84336 15.6571V41.115C2.84336 41.5741 2.95762 42.007 3.1584 42.3873H1.34248C0.60703 42.3873 0.00868988 42.9857 0.00868988 43.7211V46.6446C0.00868988 48.4864 1.50713 49.9848 3.34892 49.9848H46.6599C48.5017 49.9848 50.0001 48.4864 50.0001 46.6446V43.7211C50 42.9858 49.4017 42.3874 48.6662 42.3874ZM47.6423 21.2459C48.1107 21.2459 48.4917 21.627 48.4917 22.0953V30.2051C48.4917 30.6735 48.1107 31.0545 47.6423 31.0545H39.7756C39.1958 31.0545 38.6331 31.2613 38.1912 31.6369L33.9114 35.2746V32.2961C33.9114 31.6114 33.3545 31.0545 32.6698 31.0545H31.6475C31.1791 31.0545 30.7981 30.6735 30.7981 30.2051V22.0953C30.7981 21.627 31.1791 21.2459 31.6475 21.2459H47.6423ZM26.4923 14.4693C26.4932 14.4412 26.4933 14.413 26.4939 14.3849H44.4299C45.1316 14.3849 45.7024 14.9557 45.7024 15.6573V19.7831H44.0571V17.3681C44.0571 16.539 43.3825 15.8644 42.5534 15.8644H26.3689C26.4358 15.4352 26.4768 14.9737 26.4923 14.4693ZM26.398 22.316C26.398 22.8899 25.9311 23.3567 25.3573 23.3567H25.2676V21.2753H25.3573C25.9311 21.2753 26.398 21.7421 26.398 22.316ZM12.0509 16.3986C12.0564 15.5117 12.5857 14.6961 13.4321 14.27C14.9373 13.5123 16.6186 13.3099 18.0646 13.2117C18.4359 13.1865 18.8027 13.1649 19.1667 13.1433C20.6643 13.0546 22.0787 12.9709 23.5905 12.6721L23.6005 12.6701C23.9047 12.6103 24.204 12.549 24.4662 12.4934C24.6054 12.4636 24.711 12.5174 24.7615 12.5521C24.8119 12.5866 24.9 12.6655 24.9227 12.8057C25.0104 13.3488 25.0466 13.8935 25.0302 14.4242C25.009 15.1129 24.9362 15.7002 24.8079 16.2197C24.6817 16.7301 24.7785 17.2607 25.0732 17.6755L25.0733 17.6756C25.5399 18.3315 25.8233 19.0834 25.9069 19.8739C25.7299 19.8341 25.5461 19.8124 25.3572 19.8124H25.2687L25.2676 19.4715C25.2661 19.0218 25.0194 18.6106 24.6237 18.3982C24.2257 18.1845 23.7435 18.2067 23.3652 18.4557C23.2789 18.5125 23.1876 18.5664 23.0941 18.6155C22.8462 18.7458 22.5695 18.8566 22.2483 18.9541C21.7076 19.1183 21.0875 19.2243 20.2969 19.288C18.8294 19.406 17.3357 19.3884 15.977 19.2369C15.1252 19.142 14.0424 18.9697 13.2166 18.4722C12.836 18.2409 12.3594 18.2318 11.9725 18.4487C11.5894 18.6635 11.3504 19.0702 11.3489 19.5104L11.348 19.8125H11.2706C11.078 19.8125 10.8907 19.8351 10.7105 19.8765C10.8032 19.0164 11.1355 18.1885 11.6711 17.5043C11.9138 17.1942 12.0485 16.8027 12.0509 16.3986ZM11.2707 24.8195H11.3842C11.6559 27.5372 13.498 29.7982 15.9868 30.6818V31.4192C13.0688 32.3931 10.9589 35.1492 10.9589 38.3904V39.4452H7.45527C7.43272 39.4452 7.41445 39.4269 7.41445 39.4044V17.368C7.41445 17.3454 7.43272 17.3272 7.45527 17.3272H10.0336C9.50586 18.2486 9.22022 19.3017 9.22022 20.3682V20.882C8.93506 21.2885 8.76709 21.7828 8.76709 22.3159C8.76709 23.6964 9.89024 24.8195 11.2707 24.8195ZM10.23 22.316C10.23 21.7422 10.6969 21.2753 11.2707 21.2753H11.3492V23.3567H11.2707C10.6969 23.3567 10.23 22.8898 10.23 22.316ZM12.4218 38.3904C12.4218 35.9239 13.9472 33.808 16.1038 32.9339C16.4095 33.8591 17.2817 34.5289 18.308 34.5289C19.3345 34.5289 20.2069 33.8589 20.5124 32.9334C22.6689 33.8077 24.1942 35.924 24.1942 38.3905V39.4453H12.4218V38.3904ZM17.4497 32.2076V31.0267C17.7313 31.0615 18.0176 31.0813 18.3084 31.0813C18.599 31.0813 18.885 31.0615 19.1664 31.0268V32.2076C19.1664 32.6809 18.7814 33.0659 18.3081 33.0659C17.8349 33.0659 17.4497 32.6809 17.4497 32.2076ZM18.3084 29.6185C15.3034 29.6185 12.8553 27.1941 12.814 24.1987C12.8194 24.1626 12.812 19.9181 12.812 19.9181C13.7991 20.4126 14.9207 20.5911 15.8149 20.6907C17.265 20.8525 18.8555 20.8716 20.4143 20.7461C21.3119 20.6738 22.0297 20.5492 22.6732 20.3539C23.0839 20.2292 23.7948 19.8998 23.8046 19.8945V24.1221C23.8047 27.1527 21.3391 29.6185 18.3084 29.6185ZM4.30635 15.6572C4.30635 14.9556 4.87715 14.3848 5.57881 14.3848H11.1859C10.8996 14.8321 10.7081 15.3344 10.6291 15.8642H7.45527C6.62617 15.8642 5.95156 16.5387 5.95156 17.3679V39.4043C5.95156 40.2334 6.62607 40.908 7.45527 40.908H31.4495C31.8535 40.908 32.181 40.5806 32.181 40.1766C32.181 39.7726 31.8535 39.4451 31.4495 39.4451H25.657V38.3904C25.657 35.1493 23.5469 32.3946 20.6292 31.4206V30.6819C23.1184 29.7985 24.9608 27.5374 25.2325 24.8194H25.3572C26.7377 24.8194 27.8607 23.6963 27.8607 22.3159C27.8607 21.7759 27.6883 21.2758 27.3965 20.8663V20.3681C27.3965 19.291 27.1167 18.2511 26.5846 17.3271H42.5533C42.5759 17.3271 42.5942 17.3453 42.5942 17.3679V19.7829H31.6474C30.3724 19.7829 29.3351 20.8202 29.3351 22.0952V30.2051C29.3351 31.4801 30.3724 32.5174 31.6474 32.5174H32.4485V35.7531C32.4485 36.2428 32.7246 36.6745 33.169 36.8801C33.3384 36.9584 33.5169 36.9968 33.6938 36.9968C33.9809 36.9968 34.2635 36.8954 34.4943 36.6991L39.1387 32.7516C39.3163 32.6005 39.5426 32.5174 39.7756 32.5174H42.5942V39.4043C42.5942 39.4269 42.576 39.4451 42.5534 39.4451H34.8278C34.4238 39.4451 34.0964 39.7726 34.0964 40.1766C34.0964 40.5805 34.4238 40.908 34.8278 40.908H42.5534C43.3825 40.908 44.0571 40.2334 44.0571 39.4043V32.5174H45.7024V41.1151C45.7024 41.8166 45.1315 42.3874 44.4299 42.3874H5.57871C4.87705 42.3874 4.30625 41.8166 4.30625 41.1151V15.6572H4.30635ZM29.5919 43.8503V44.2381C29.5919 44.909 29.0461 45.4547 28.3752 45.4547H21.6333C20.9624 45.4547 20.4167 44.9089 20.4167 44.2381V43.8503H29.5919ZM48.5371 46.6446C48.5371 47.6798 47.6949 48.5221 46.6598 48.5221H3.34892C2.31377 48.5221 1.47158 47.6799 1.47158 46.6446V43.8503H18.9539V44.2381C18.9539 45.7156 20.156 46.9176 21.6334 46.9176H28.3753C29.8528 46.9176 31.0549 45.7155 31.0549 44.2381V43.8503H48.5371V46.6446Z" fill="black"/>
<path d="M33.8139 24.1467H45.4758C45.8798 24.1467 46.2072 23.8192 46.2072 23.4152C46.2072 23.0113 45.8798 22.6838 45.4758 22.6838H33.8139C33.4099 22.6838 33.0824 23.0112 33.0824 23.4152C33.0824 23.8192 33.4099 24.1467 33.8139 24.1467Z" fill="black"/>
<path d="M45.4758 25.4188H43.559C43.155 25.4188 42.8275 25.7462 42.8275 26.1502C42.8275 26.5542 43.155 26.8817 43.559 26.8817H45.4758C45.8798 26.8817 46.2072 26.5542 46.2072 26.1502C46.2072 25.7462 45.8798 25.4188 45.4758 25.4188Z" fill="black"/>
<path d="M33.8139 26.8815H40.1846C40.5886 26.8815 40.916 26.5541 40.916 26.1501C40.916 25.7462 40.5886 25.4186 40.1846 25.4186H33.8139C33.4099 25.4186 33.0824 25.7461 33.0824 26.1501C33.0824 26.5541 33.4099 26.8815 33.8139 26.8815Z" fill="black"/>
<path d="M33.8139 29.6165H45.4758C45.8798 29.6165 46.2072 29.2891 46.2072 28.8851C46.2072 28.4811 45.8798 28.1536 45.4758 28.1536H33.8139C33.4099 28.1536 33.0824 28.4811 33.0824 28.8851C33.0824 29.2891 33.4099 29.6165 33.8139 29.6165Z" fill="black"/>
<path d="M2.01553 6.80791H4.37822C4.78223 6.80791 5.10967 6.48047 5.10967 6.07647C5.10967 5.67256 4.78223 5.34502 4.37822 5.34502H2.01553C1.71074 5.34502 1.46289 5.09707 1.46289 4.79238V2.03066C1.46289 1.72588 1.71084 1.47803 2.01553 1.47803H17.7386C18.0434 1.47803 18.2912 1.72598 18.2912 2.03066V4.79238C18.2912 5.09717 18.0433 5.34502 17.7386 5.34502H16.9081C16.2763 5.34502 15.7623 5.85908 15.7623 6.49092V8.61328L12.5122 5.85068C12.1285 5.52451 11.6399 5.34492 11.1363 5.34492H7.78535C7.38145 5.34492 7.05391 5.67236 7.05391 6.07637C7.05391 6.48037 7.38135 6.80781 7.78535 6.80781H11.1363C11.2932 6.80781 11.4453 6.86367 11.5648 6.96533L15.3372 10.172C15.5503 10.353 15.811 10.4466 16.0761 10.4466C16.2393 10.4466 16.404 10.4111 16.5603 10.3389C16.9704 10.1492 17.2252 9.75068 17.2252 9.29883V6.80791H17.7386C18.85 6.80791 19.7541 5.90371 19.7541 4.79238V2.03066C19.7541 0.919238 18.8499 0.0151367 17.7386 0.0151367H2.01553C0.904102 0.0151367 0 0.919238 0 2.03066V4.79238C0 5.90371 0.904102 6.80791 2.01553 6.80791Z" fill="black"/>
</g>
<defs>
<clipPath id="clip0">
<rect width="50" height="50" fill="white"/>
</clipPath>
</defs>
</svg>
