<svg width="51" height="50" viewBox="0 0 51 50" fill="none" xmlns="http://www.w3.org/2000/svg">
<g clip-path="url(#clip0)">
<path d="M25.92 43.9915C36.4087 43.9915 44.9115 35.4888 44.9115 25C44.9115 14.5113 36.4087 6.00854 25.92 6.00854C15.4313 6.00854 6.92847 14.5113 6.92847 25C6.92847 35.4888 15.4313 43.9915 25.92 43.9915Z" fill="#99E6FC"/>
<path d="M44.9114 25.0001C44.9114 35.4888 36.4086 43.9915 25.92 43.9915C23.2383 43.9915 20.6868 43.4361 18.3739 42.4333C20.0715 42.9313 21.8684 43.1982 23.7278 43.1982C34.2165 43.1982 42.7192 34.6946 42.7192 24.2059C42.7192 16.4006 38.0114 9.69558 31.2798 6.77527C39.1588 9.08904 44.9114 16.3724 44.9114 25.0001Z" fill="#62DBFB"/>
<path d="M44.3707 20.4813C44.1473 20.6353 43.9035 20.7585 43.6417 20.8432C41.8285 21.4293 38.1792 19.8986 37.0017 22.0702C36.4636 23.0654 36.6483 24.1794 36.8212 25.1891C36.9418 25.8993 37.2097 27.3694 36.5602 27.9187C35.8424 28.5262 34.3064 28.0128 33.5748 27.7176C32.5044 27.2855 31.5135 26.666 30.6134 25.9464C29.1588 24.7835 27.8171 23.3426 26.6353 21.9128C25.6102 20.673 24.4611 18.9146 25.2552 17.2897C25.4126 16.9662 25.6334 16.6608 25.677 16.3039C25.7763 15.4979 25.2287 15.0573 25.0336 14.3522C24.3414 11.845 27.3977 10.6977 28.5264 8.97004C29.0406 8.18196 29.418 7.28606 29.5822 6.36194C36.8451 7.78069 42.6277 13.339 44.3707 20.4813Z" fill="#D1F19E"/>
<path d="M44.3706 20.4813C44.1473 20.6353 43.9034 20.7586 43.6416 20.8432C43.2993 20.9536 42.8921 20.9888 42.4471 20.9879C41.3561 14.5935 37.0693 9.29011 31.2884 6.77869C37.7409 8.67654 42.7662 13.9081 44.3706 20.4813Z" fill="#BBEC6C"/>
<path d="M20.9468 18.1818C20.9742 19.36 20.8325 20.6168 20.0988 21.5392C19.3032 22.5395 17.972 22.9437 16.7032 23.0974C15.8983 23.195 15.0577 23.2098 14.3036 22.9118C13.952 22.773 13.63 22.57 13.3103 22.3684C12.3468 21.7607 11.2647 20.9405 11.3103 19.8022C11.3573 18.6305 12.6053 17.8781 13.7565 17.6544C14.9074 17.4309 16.147 17.4964 17.1812 16.9443C18.0124 16.5005 18.73 15.5765 19.7927 15.7858C20.8498 15.994 20.9248 17.2377 20.9468 18.1818Z" fill="#D1F19E"/>
<path d="M33.555 42.394C31.2182 43.4216 28.6358 43.9916 25.92 43.9916C24.0726 43.9916 22.2869 43.728 20.5986 43.236C20.5797 43.1264 20.5712 43.0118 20.572 42.892C20.5891 40.9035 21.159 38.8234 22.1584 37.1052C22.879 35.8679 24.1907 34.7017 23.1108 33.2385C22.5931 32.5369 21.7905 32.1065 20.9828 31.7788C20.092 31.4185 18.9874 30.9308 18.9677 29.9708C18.9506 29.1348 19.7968 28.5778 20.5378 28.1901C23.412 26.685 25.9293 27.9292 27.2051 30.6852C27.5491 31.4271 27.804 32.2562 27.8572 33.0751C27.9077 33.8691 27.7168 34.6777 27.9941 35.4538C28.1558 35.9064 28.4733 36.288 28.8327 36.6063C30.3463 37.9514 32.7422 38.452 33.5088 40.3267C33.7767 40.9838 33.7698 41.7171 33.555 42.394Z" fill="#D1F19E"/>
<path d="M33.5584 40.4593C33.7749 41.0814 33.7552 41.7624 33.555 42.394C31.2182 43.4216 28.6358 43.9915 25.92 43.9915C24.0726 43.9915 22.2869 43.7279 20.5986 43.2359C20.5824 43.1401 20.5738 43.04 20.5729 42.9364C21.5989 43.1093 22.653 43.1983 23.7277 43.1983C27.3258 43.1983 30.6912 42.198 33.5584 40.4593Z" fill="#BBEC6C"/>
<path d="M40.2745 49.2679C35.8193 49.234 32.1963 45.5764 32.2026 41.1211C32.207 38.0104 33.9578 35.3093 36.5267 33.9445C36.6318 33.8886 36.6972 33.7791 36.6972 33.6601V31.6955C36.6972 31.4202 37.0196 31.2711 37.2294 31.4494L39.0428 32.9907C39.1126 33.05 39.2043 33.0761 39.2953 33.0644C39.6367 33.0206 39.9845 32.9977 40.3379 32.9977C44.8308 32.9977 48.473 36.6399 48.473 41.1329C48.473 45.647 44.7965 49.3023 40.2745 49.2679Z" fill="#D9B1EE"/>
<path d="M48.4728 41.1328C48.4728 45.647 44.7969 49.3026 40.2748 49.2684C38.3349 49.2537 36.5539 48.5522 35.1603 47.3957C36.1587 47.8475 37.2642 48.1033 38.4256 48.112C42.9476 48.1461 46.6236 44.4906 46.6236 39.9773C46.6236 37.4567 45.478 35.2044 43.6785 33.7133C46.5056 34.9878 48.4728 37.8304 48.4728 41.1328Z" fill="#CB97E7"/>
<path d="M11.5655 0.732175C16.0207 0.766062 19.6437 4.42368 19.6374 8.87895C19.633 11.9897 17.8822 14.6908 15.3132 16.0556C15.2082 16.1115 15.1427 16.2209 15.1427 16.34V18.3046C15.1427 18.5799 14.8204 18.729 14.6106 18.5507L12.7972 17.0094C12.7274 16.95 12.6357 16.924 12.5447 16.9357C12.2033 16.9794 11.8554 17.0024 11.5021 17.0024C7.00913 17.0024 3.36694 13.3602 3.36694 8.86723C3.36694 4.35307 7.04351 0.697703 11.5655 0.732175Z" fill="#FECE85"/>
<path d="M19.6375 8.87903C19.6326 11.9901 17.8819 14.6911 15.3135 16.0554C15.2081 16.1111 15.1427 16.2213 15.1427 16.3404V18.3047C15.1427 18.5799 14.8206 18.7292 14.6108 18.5506L13.192 17.3454C13.2301 17.2937 13.2535 17.2293 13.2535 17.1551V15.1898C13.2535 15.0707 13.3188 14.9615 13.4243 14.9058C15.9937 13.5406 17.7444 10.8395 17.7483 7.72942C17.7522 5.18342 16.5705 2.89797 14.7262 1.401C17.6145 2.65706 19.6414 5.54456 19.6375 8.87903Z" fill="#FEC165"/>
<path d="M43.9315 33.0275C45.0298 30.5737 45.6434 27.8575 45.6434 24.9998C45.6434 14.1243 36.7955 5.2764 25.92 5.2764C23.8422 5.2764 21.8392 5.6014 19.9571 6.20003C18.8267 2.63665 15.4967 0.0299157 11.5711 3.29014e-05C9.70866 -0.0127601 7.92194 0.542904 6.40446 1.61077C6.0739 1.84339 5.9945 2.29994 6.22712 2.6305C6.45983 2.96107 6.91618 3.04056 7.24694 2.80785C8.49753 1.92777 9.96755 1.46361 11.502 1.46361C11.5213 1.46361 11.5407 1.46361 11.56 1.4638C15.6161 1.49466 18.9113 4.82044 18.9054 8.87767C18.9015 11.6188 17.3935 14.1214 14.9698 15.409C14.625 15.5922 14.4108 15.9488 14.4108 16.3397V17.4201L13.2713 16.4513C13.0459 16.2597 12.747 16.1713 12.4517 16.2093C12.1377 16.2495 11.8181 16.2701 11.5022 16.2701C7.42009 16.2701 4.09899 12.949 4.09899 8.86683C4.09899 7.52572 4.461 6.21224 5.14616 5.06859C5.35378 4.72181 5.24108 4.2724 4.89431 4.06468C4.54753 3.85687 4.09821 3.96976 3.8903 4.31654C3.06921 5.68743 2.63522 7.26097 2.63522 8.86693C2.63522 12.4769 4.80397 15.5895 7.90671 16.9714C6.80856 19.4252 6.19655 22.1422 6.19655 24.9998C6.19655 35.8753 15.0445 44.7233 25.92 44.7233C27.9977 44.7233 30.0012 44.3997 31.8834 43.8013C33.0143 47.3637 36.3439 49.9698 40.2689 49.9996C40.2922 49.9997 40.3151 49.9998 40.3384 49.9998C42.6944 49.9998 44.91 49.0876 46.5836 47.4267C48.2739 45.7492 49.2048 43.514 49.2048 41.1327C49.2049 37.5221 47.0352 34.409 43.9315 33.0275ZM30.1291 7.2307C30.3651 7.28665 30.5994 7.34701 30.8318 7.41204C30.8613 7.42035 30.8909 7.42806 30.9203 7.43626C37.0133 9.17337 41.8151 14.0034 43.5143 20.112C43.4819 20.1244 43.4493 20.1361 43.4165 20.1467C42.8983 20.3141 42.0453 20.2533 41.2204 20.1944C39.4899 20.0709 37.3363 19.9172 36.3579 21.7219C35.6949 22.9477 35.9193 24.2589 36.0995 25.3116L36.1081 25.3615C36.3519 26.7924 36.2314 27.2379 36.0873 27.3599C35.863 27.5497 35.0667 27.5303 33.8486 27.0388C32.9148 26.6618 31.9801 26.1019 31.0701 25.3745C29.832 24.3848 28.5659 23.0999 27.1992 21.4463C26.2735 20.3263 25.2362 18.841 26.03 17.3881C26.1743 17.1239 26.3541 16.7949 26.4031 16.3933C26.4941 15.6548 26.2139 15.1319 25.9888 14.7118C25.8816 14.5117 25.789 14.3389 25.7387 14.1573C25.4128 12.9765 26.1857 12.2276 27.4738 11.1034C28.0831 10.5717 28.7131 10.0219 29.139 9.36995C29.5786 8.69661 29.9145 7.96859 30.1291 7.2307ZM13.4221 18.5008L14.1366 19.108C14.3328 19.2748 14.5728 19.3609 14.8169 19.3609C14.967 19.3609 15.1187 19.3283 15.2626 19.2618C15.6401 19.0871 15.8747 18.7203 15.8747 18.3043V18.1083C16.4335 18.0175 16.9917 17.8751 17.526 17.5898C17.8116 17.4373 18.068 17.2502 18.3161 17.0692C18.7978 16.7177 19.1336 16.4876 19.4888 16.4876C19.5425 16.4876 19.5966 16.4929 19.6515 16.5037C20.0355 16.5793 20.1883 17.0386 20.2152 18.1986C20.2463 19.5367 20.0273 20.4534 19.5261 21.0834C18.9803 21.7697 18.001 22.2027 16.6153 22.3707C15.7213 22.4789 15.0914 22.436 14.5727 22.2311C14.2835 22.1168 14.0007 21.9383 13.701 21.7493C12.9128 21.2522 12.0117 20.5848 12.0419 19.8315C12.0657 19.2329 12.6976 18.7503 13.4221 18.5008ZM31.1021 37.2242C30.4422 36.8534 29.8187 36.5033 29.318 36.0582C28.997 35.774 28.7836 35.4876 28.6834 35.2074C28.5482 34.8288 28.5649 34.4065 28.5843 33.9175C28.5955 33.6317 28.6072 33.3362 28.5876 33.0275C28.5333 32.1901 28.2848 31.2736 27.8694 30.3776C27.1028 28.7216 25.9003 27.5446 24.4832 27.0633C23.1452 26.6089 21.6635 26.7743 20.1987 27.5414C19.654 27.8263 18.2073 28.583 18.236 29.9856C18.2663 31.4696 19.855 32.1119 20.7077 32.4568C21.6129 32.824 22.1723 33.1991 22.5219 33.673C23.0311 34.3629 22.7911 34.849 22.0285 35.9628C21.945 36.0849 21.8615 36.2069 21.7808 36.3292C21.5582 36.6666 21.6512 37.1206 21.9885 37.3432C22.3259 37.5658 22.7799 37.4728 23.0025 37.1354C23.0787 37.02 23.1576 36.9049 23.2364 36.7898C23.9279 35.7796 24.875 34.3962 23.6998 32.8039C23.0346 31.9023 22.0454 31.42 21.2572 31.1001C20.7166 30.8815 19.7101 30.4745 19.6995 29.9557C19.6927 29.622 20.0779 29.2567 20.8775 28.8384C21.9949 28.2533 23.0498 28.1223 24.0126 28.4494C25.0616 28.8058 25.9359 29.6852 26.5414 30.9931C26.8818 31.7273 27.0842 32.4635 27.127 33.1215C27.1418 33.354 27.1321 33.5997 27.1217 33.8599C27.0996 34.4199 27.0745 35.0545 27.3051 35.7C27.4892 36.2153 27.8399 36.7045 28.3468 37.1535C28.9645 37.7025 29.6868 38.1081 30.3853 38.5006C30.8382 38.755 31.279 39.004 31.6666 39.2792C31.5392 39.8772 31.4718 40.4933 31.4709 41.1202C31.4703 41.5433 31.5003 41.9595 31.5576 42.3672C29.7812 42.9455 27.8869 43.2599 25.9201 43.2599C24.3276 43.2599 22.7822 43.0544 21.3086 42.6696C21.3356 41.7958 21.4736 40.909 21.7197 40.03C21.8286 39.6408 21.6014 39.2369 21.2123 39.128C20.8226 39.0188 20.4191 39.2462 20.3101 39.6355C20.0692 40.4961 19.9224 41.3649 19.8673 42.2276C12.7649 39.7242 7.66032 32.9474 7.66032 24.9998C7.66032 22.3109 8.24528 19.7563 9.29362 17.4555C9.99987 17.6372 10.7399 17.7339 11.5021 17.7339C11.5864 17.7339 11.671 17.7326 11.7556 17.7301C11.0894 18.2209 10.6137 18.9088 10.5791 19.7728C10.5111 21.468 12.1991 22.5327 12.9199 22.9873C13.2471 23.1938 13.6181 23.4278 14.0345 23.5924C14.6169 23.8226 15.2274 23.8915 15.7766 23.8915C16.1532 23.8915 16.5011 23.8591 16.7913 23.824C18.5724 23.608 19.878 22.9926 20.6717 21.9948C21.6259 20.795 21.7033 19.2343 21.6785 18.1648C21.6592 17.337 21.6142 15.3986 19.9342 15.0677C18.8655 14.8573 18.082 15.4282 17.4532 15.8869C17.2364 16.0451 17.0316 16.1946 16.8366 16.2987C16.5452 16.4542 16.2203 16.5508 15.8746 16.6198V16.5821C18.6491 15.0082 20.3647 12.0798 20.3692 8.87992C20.3698 8.45667 20.3397 8.04027 20.2824 7.63226C22.0587 7.05404 23.9533 6.74027 25.92 6.74027C26.8592 6.74027 27.782 6.81165 28.6834 6.94915C28.5091 7.5054 28.2491 8.0556 27.9137 8.56966C27.5986 9.05198 27.0707 9.51273 26.5116 10.0006C25.277 11.0781 23.7405 12.419 24.3281 14.5473C24.4219 14.8866 24.569 15.161 24.6988 15.4032C24.8867 15.7538 24.9832 15.9492 24.9505 16.215C24.9188 16.4743 24.7097 16.7376 24.5974 16.9682C23.4831 19.2486 25.431 21.6047 26.071 22.3789C27.5023 24.1109 28.8386 25.4647 30.1561 26.5179C31.177 27.3341 32.235 27.9659 33.3008 28.3962C33.996 28.6767 34.8379 28.9311 35.6051 28.931C36.143 28.931 36.6445 28.806 37.0327 28.4774C37.9864 27.6706 37.7031 26.0085 37.5509 25.1155L37.5425 25.0655C37.3853 24.148 37.2229 23.1992 37.645 22.4189C38.1364 21.5122 39.3383 21.5277 41.116 21.6543C42.1181 21.7259 43.0645 21.7931 43.8501 21.5443C44.0654 22.6636 44.1795 23.8186 44.1795 24.9998C44.1795 27.6889 43.5941 30.2434 42.5457 32.5441C41.8395 32.3624 41.0997 32.2658 40.3377 32.2658C40.0198 32.2658 39.6987 32.283 39.3805 32.3173L37.7032 30.8916C37.3861 30.6222 36.955 30.5633 36.5772 30.7379C36.1997 30.9125 35.9651 31.2793 35.9651 31.6953V33.4177C34.1908 34.4242 32.8506 35.9852 32.1129 37.8164C31.7832 37.6077 31.4414 37.4147 31.1021 37.2242ZM45.5525 46.3877C44.1551 47.7745 42.3054 48.5361 40.3382 48.5361C40.3188 48.5361 40.2994 48.5361 40.2801 48.5359C36.224 48.505 32.9288 45.1791 32.9346 41.122C32.9385 38.3809 34.4466 35.8783 36.8703 34.5907C37.2151 34.4075 37.4293 34.0508 37.4293 33.6599V32.5795L38.5686 33.548C38.7941 33.7398 39.0925 33.8281 39.3883 33.7902C39.7028 33.7498 40.0222 33.7294 40.3379 33.7294C44.42 33.7294 47.7411 37.0505 47.7411 41.1327C47.7411 43.1209 46.9638 44.9871 45.5525 46.3877Z" fill="black"/>
<path d="M38.9128 43.3484H36.3415C35.9372 43.3484 35.6096 43.676 35.6096 44.0803C35.6096 44.4846 35.9372 44.8123 36.3415 44.8123H38.9128C39.3171 44.8123 39.6447 44.4846 39.6447 44.0803C39.6447 43.676 39.3171 43.3484 38.9128 43.3484Z" fill="black"/>
<path d="M44.3342 43.3484H42.2547C41.8504 43.3484 41.5228 43.676 41.5228 44.0803C41.5228 44.4846 41.8504 44.8123 42.2547 44.8123H44.3342C44.7385 44.8123 45.0661 44.4846 45.0661 44.0803C45.0661 43.676 44.7385 43.3484 44.3342 43.3484Z" fill="black"/>
<path d="M44.3342 40.389H36.3415C35.9372 40.389 35.6096 40.7166 35.6096 41.1209C35.6096 41.5252 35.9372 41.8528 36.3415 41.8528H44.3342C44.7385 41.8528 45.0661 41.5252 45.0661 41.1209C45.0661 40.7166 44.7385 40.389 44.3342 40.389Z" fill="black"/>
<path d="M44.3342 37.4296H36.3415C35.9372 37.4296 35.6096 37.7573 35.6096 38.1616C35.6096 38.5658 35.9372 38.8935 36.3415 38.8935H44.3342C44.7385 38.8935 45.0661 38.5659 45.0661 38.1616C45.0661 37.7573 44.7385 37.4296 44.3342 37.4296Z" fill="black"/>
<path d="M15.4985 5.18781H7.50583C7.10153 5.18781 6.7739 5.51544 6.7739 5.91974C6.7739 6.32394 7.10153 6.65167 7.50583 6.65167H15.4985C15.9028 6.65167 16.2304 6.32404 16.2304 5.91974C16.2304 5.51544 15.9028 5.18781 15.4985 5.18781Z" fill="black"/>
<path d="M15.4985 8.14728H14.189C13.7847 8.14728 13.4571 8.47491 13.4571 8.87911C13.4571 9.28331 13.7847 9.61105 14.189 9.61105H15.4985C15.9028 9.61105 16.2304 9.28341 16.2304 8.87911C16.2304 8.47491 15.9028 8.14728 15.4985 8.14728Z" fill="black"/>
<path d="M7.50583 9.61105H10.8164C11.2207 9.61105 11.5483 9.28341 11.5483 8.87911C11.5483 8.47491 11.2207 8.14728 10.8164 8.14728H7.50583C7.10153 8.14728 6.7739 8.47491 6.7739 8.87911C6.7739 9.28331 7.10153 9.61105 7.50583 9.61105Z" fill="black"/>
<path d="M7.50583 12.5705H15.4985C15.9028 12.5705 16.2304 12.2428 16.2304 11.8385C16.2304 11.4343 15.9028 11.1067 15.4985 11.1067H7.50583C7.10153 11.1067 6.7739 11.4343 6.7739 11.8385C6.7739 12.2428 7.10153 12.5705 7.50583 12.5705Z" fill="black"/>
</g>
<defs>
<clipPath id="clip0">
<rect width="50" height="50" fill="white" transform="translate(0.919983)"/>
</clipPath>
</defs>
</svg>
